# xmcd
#
# Track frame offsets:
#	150
#	20812
#	40875
#	59800
#	84262
#	104425
#	125487
#	145687
#	165200
#	186875
#
# Disc length: 2776 seconds
#
# Revision: 8
# Processed by: cddbd v1.5.1PL0 Copyright (c) Steve Scherf et al.
# Submitted via: EasyCDDAExtractor 6.0.0.1
#
DISCID=840ad60a
DTITLE=孟庭葦 - 真的還是假的
DYEAR=1995
DGENRE=Pop
TTITLE0=真的還是假的
TTITLE1=愛你太真
TTITLE2=相愛的可能性
TTITLE3=情願一個人
TTITLE4=過冬
TTITLE5=春雪
TTITLE6=默認
TTITLE7=把思念寄託遠方
TTITLE8=淚\海
TTITLE9=愛情，Stay
EXTD=YEAR: 1995
EXTT0=
EXTT1=
EXTT2=
EXTT3=
EXTT4=
EXTT5=
EXTT6=
EXTT7=
EXTT8=
EXTT9=
PLAYORDER=
